<svg width="512" height="512" viewBox="0 0 512 512" fill="none" xmlns="http://www.w3.org/2000/svg">
<g clip-path="url(#clip0_1_2)">
<rect width="512" height="512" rx="100" fill="white"/>
<path d="M451.532 319.069L452.736 315.229L453.899 311.24L454.981 307.227L455.981 303.193L456.899 299.14L457.735 295.069L458.487 290.982L459.157 286.88L459.742 282.766L460.244 278.64L460.663 274.505L460.996 270.363L461.246 266.215L461.412 262.062L461.493 257.907L461.489 253.751L461.401 249.596L461.229 245.443L460.973 241.296L460.632 237.154L460.207 233.02L459.698 228.895L459.105 224.781L458.429 220.681L457.67 216.596L456.828 212.525L455.903 208.474L454.896 204.442L453.808 200.431L452.638 196.443L451.387 192.48L450.056 188.543L448.646 184.633L447.155 180.754L445.588 176.906L443.941 173.089L442.218 169.307L440.418 165.562L438.543 161.854L436.591 158.184L434.567 154.555L432.469 150.967L430.298 147.423L428.056 143.924L425.744 140.471L423.361 137.066L420.909 133.71L418.391 130.404L415.805 127.15L413.154 123.95L410.439 120.804L407.659 117.714L404.819 114.681L401.916 111.706L398.954 108.791L395.933 105.937L392.855 103.145L389.721 100.415L386.532 97.7505L383.289 95.151L379.995 92.618L376.65 90.1525L373.254 87.7555L369.812 85.4275L366.322 83.1705L362.788 80.9845L359.209 78.871L355.589 76.8305L351.927 74.864L348.227 72.9725L344.489 71.1565L340.715 69.417L336.906 67.7545L333.064 66.1695L329.191 64.663L325.288 63.2355L321.357 61.8875L317.399 60.62L313.416 59.433L309.41 58.327L305.382 57.303L301.335 56.361L297.269 55.501L293.186 54.724L289.088 54.0305L284.978 53.42L280.855 52.8935L276.723 52.4505L272.582 52.092L268.435 51.8175L264.284 51.627L260.129 51.5215L255.973 51.5L251.818 51.563L247.665 51.7105L243.516 51.9425L239.371 52.2585L235.235 52.659L231.107 53.1435L226.99 53.7115L222.886 54.363L218.796 55.098L214.721 55.9155L210.664 56.816L206.626 57.799L202.609 58.8635L198.614 60.0095L194.644 61.2365L190.698 62.544L186.781 63.931L182.892 65.398L179.035 66.943L175.209 68.5665L171.417 70.2675L167.661 72.045L163.941 73.8985L160.26 75.827L156.618 77.83L153.018 79.9065L149.462 82.056L145.949 84.2775L142.482 86.5695L139.063 88.9315L135.693 91.363L132.372 93.862L129.103 96.428L125.886 99.06L122.725 101.757L119.618 104.517L116.568 107.34L113.576 110.225L110.644 113.17L107.771 116.173L104.961 119.234L102.213 122.352L99.529 125.525L96.91 128.752L94.3575 132.031L91.872 135.363L89.4545 138.743L87.1065 142.172L84.8285 145.648L82.6215 149.169L80.4865 152.735L78.4245 156.343L76.4995 159.876L76.4465 159.975L76.3945 160.074L76.1615 160.52L75.8945 161.048L75.6355 161.581L75.3845 162.115L75.1425 162.652L74.9085 163.191L74.683 163.733L74.466 164.277L74.258 164.824L74.0585 165.372L73.868 165.923L73.6865 166.477L73.514 167.031L73.3505 167.589L73.196 168.148L73.051 168.708L72.915 169.27L72.7885 169.834L72.672 170.399L72.5645 170.965L72.4665 171.533L72.3785 172.101L72.3 172.67L72.2315 173.24L72.1725 173.811L72.1235 174.381L72.0845 174.952L72.0555 175.523L72.0365 176.094L72.027 176.665L72.028 177.234L72.0385 177.804L72.0595 178.372L72.09 178.94L72.1305 179.506L72.181 180.071L72.2415 180.634L72.3115 181.195L72.3915 181.755L72.481 182.312L72.5805 182.867L72.689 183.42L72.8075 183.97L72.9355 184.517L73.0725 185.061L73.219 185.602L73.3745 186.14L73.539 186.674L73.7125 187.205L73.8945 187.732L74.0855 188.255L74.285 188.775L74.493 189.29L74.7095 189.801L74.934 190.307L75.1665 190.81L75.407 191.308L75.6555 191.801L75.9115 192.29L76.175 192.774L76.446 193.253L76.724 193.728L77.0095 194.197L77.302 194.662L77.601 195.122L77.907 195.577L78.22 196.027L78.539 196.471L78.8645 196.911L79.1965 197.345L79.5345 197.774L79.8785 198.198L80.229 198.617L80.5845 199.031L80.9465 199.439L81.3135 199.844L81.6865 200.242L82.065 200.635L82.4485 201.023L82.8375 201.406L83.2315 201.784L83.6305 202.156L84.0345 202.524L84.444 202.887L84.8575 203.244L85.2765 203.596L85.7 203.944L86.128 204.286L86.5605 204.624L86.9975 204.956L87.4395 205.283L87.8855 205.606L88.3355 205.923L88.79 206.236L89.249 206.544L89.712 206.847L90.179 207.145L90.6505 207.439L91.1255 207.727L91.605 208.01L92.088 208.29L92.575 208.564L93.066 208.833L93.5605 209.098L94.059 209.357L94.5615 209.613L95.0675 209.863L95.577 210.109L96.0905 210.35L96.6075 210.587L97.128 210.818L97.652 211.046L98.1795 211.268L98.7105 211.486L99.2455 211.699L99.7835 211.908L100.325 212.111L100.869 212.311L101.418 212.506L101.969 212.696L102.524 212.882L103.082 213.063L103.644 213.24L104.208 213.411L104.775 213.579L105.346 213.741L105.921 213.9L106.498 214.053L107.078 214.202L107.662 214.346L108.248 214.486L108.838 214.621L109.43 214.751L110.026 214.877L110.625 214.999L111.227 215.115L111.831 215.227L112.438 215.335L113.049 215.437L113.662 215.535L114.279 215.628L114.897 215.717L115.519 215.801L116.144 215.88L116.771 215.955L117.401 216.025L118.034 216.089L118.67 216.15L119.308 216.206L119.949 216.257L120.592 216.303L121.239 216.344L121.887 216.38L122.538 216.412L123.192 216.439L123.849 216.461L124.508 216.478L125.17 216.49L125.834 216.497L126.452 216.5H126.476H126.5H282.776L180.774 308.863L180.053 309.569L179.389 310.328L178.786 311.137L178.247 311.99L177.777 312.882L177.376 313.807L177.049 314.762L176.797 315.738L176.621 316.731L176.523 317.735L176.503 318.743L176.56 319.75L176.696 320.75L176.909 321.736L177.198 322.702L177.561 323.643L177.995 324.553L178.499 325.427L179.069 326.259L179.702 327.044L180.394 327.778L181.141 328.456L181.938 329.074L182.78 329.629L183.663 330.116L184.581 330.534L185.529 330.879L186.5 331.15L187.49 331.344L188.492 331.461L189.5 331.5H376.953L377.321 331.503L377.643 331.509L377.968 331.521L378.295 331.538L378.624 331.559L378.955 331.584L379.287 331.615L379.621 331.65L379.957 331.69L380.293 331.735L380.631 331.784L380.97 331.839L381.309 331.898L381.649 331.962L381.99 332.031L382.33 332.105L382.671 332.183L383.012 332.267L383.352 332.354L383.693 332.447L384.032 332.543L384.371 332.646L384.709 332.752L385.047 332.863L385.383 332.978L385.718 333.099L386.051 333.223L386.383 333.352L386.713 333.485L387.042 333.622L387.368 333.764L387.692 333.91L388.014 334.06L388.334 334.215L388.651 334.373L388.966 334.535L389.277 334.702L389.586 334.871L389.892 335.045L390.194 335.223L390.494 335.404L390.789 335.589L391.082 335.777L391.371 335.969L391.655 336.164L391.937 336.362L392.215 336.564L392.487 336.768L392.757 336.976L393.022 337.187L393.283 337.401L393.539 337.617L393.792 337.836L394.039 338.059L394.283 338.283L394.522 338.51L394.755 338.74L394.985 338.972L395.209 339.207L395.429 339.444L395.644 339.683L395.853 339.924L396.059 340.168L396.259 340.414L396.453 340.661L396.644 340.911L396.829 341.163L397.009 341.417L397.185 341.673L397.355 341.931L397.521 342.19L397.681 342.453L397.836 342.716L397.986 342.983L398.132 343.25L398.272 343.521L398.407 343.793L398.538 344.068L398.663 344.345L398.783 344.624L398.899 344.905L399.009 345.19L399.115 345.477L399.215 345.766L399.31 346.059L399.401 346.354L399.486 346.653L399.566 346.954L399.641 347.26L399.711 347.569L399.775 347.882L399.834 348.198L399.888 348.519L399.935 348.844L399.978 349.173L400.015 349.507L400.046 349.845L400.071 350.189L400.089 350.538L400.102 350.892L400.108 351.25L400.107 351.616L400.099 351.986L400.085 352.362L400.063 352.745L400.034 353.134L399.997 353.529L399.952 353.931L399.9 354.339L399.839 354.754L399.77 355.175L399.691 355.604L399.604 356.039L399.508 356.482L399.401 356.931L399.286 357.388L399.16 357.853L399.025 358.324L398.878 358.803L398.721 359.289L398.552 359.783L398.373 360.284L398.182 360.793L397.979 361.308L397.765 361.832L397.538 362.362L397.298 362.9L397.046 363.445L396.78 363.997L396.502 364.557L396.21 365.125L395.904 365.698L395.585 366.28L395.251 366.868L394.903 367.464L394.541 368.065L394.163 368.674L393.771 369.29L393.364 369.913L392.941 370.543L392.503 371.178L392.049 371.82L391.579 372.469L391.093 373.124L390.591 373.785L390.073 374.453L389.538 375.126L388.986 375.806L388.417 376.492L387.831 377.184L387.227 377.88L386.607 378.583L385.969 379.292L385.313 380.006L384.638 380.725L383.947 381.451L383.237 382.181L382.509 382.916L381.762 383.656L381.024 384.376L378.359 386.897L375.672 389.338L372.935 391.724L370.151 394.053L367.32 396.326L364.444 398.54L361.522 400.697L358.558 402.792L355.552 404.827L352.504 406.801L349.418 408.712L346.293 410.56L343.132 412.344L339.934 414.063L336.702 415.717L333.438 417.305L330.141 418.826L326.815 420.28L323.459 421.666L320.076 422.983L316.667 424.232L313.233 425.41L309.776 426.519L306.297 427.557L302.799 428.524L299.28 429.419L295.745 430.243L292.193 430.996L288.627 431.675L285.047 432.282L281.457 432.816L277.856 433.277L274.246 433.664L270.629 433.978L267.007 434.219L263.38 434.385L259.751 434.478L256.12 434.497L252.49 434.443L248.862 434.314L245.238 434.112L241.618 433.836L238.004 433.486L234.399 433.062L230.802 432.566L227.217 431.997L223.644 431.355L220.085 430.641L216.541 429.853L213.013 428.995L209.504 428.065L206.015 427.063L202.546 425.991L199.1 424.848L195.678 423.635L192.282 422.353L188.912 421.003L185.57 419.585L182.258 418.098L178.977 416.544L175.728 414.924L172.512 413.238L169.333 411.487L166.189 409.672L163.082 407.794L160.014 405.853L156.986 403.849L154.001 401.784L151.057 399.659L148.157 397.475L145.303 395.233L142.494 392.932L139.732 390.575L137.02 388.163L134.357 385.695L131.745 383.174L129.184 380.6L126.676 377.975L124.223 375.299L121.825 372.574L119.481 369.801L117.196 366.981L114.967 364.115L112.798 361.203L110.688 358.25L108.639 355.253L106.651 352.215L104.726 349.137L102.863 346.021L101.064 342.867L99.3295 339.678L97.6605 336.454L96.057 333.198L94.5205 329.908L93.051 326.589L91.649 323.24L90.316 319.863L89.0515 316.46L87.8565 313.031L86.732 309.58L85.6775 306.106L84.694 302.612L83.7815 299.098L82.941 295.566L82.172 292.018L81.476 288.455L80.852 284.879L80.301 281.29L79.8235 277.691L79.419 274.083L79.088 270.469L78.8305 266.847L78.6465 263.221L78.5365 259.592L78.5005 255.962L78.538 252.332L78.6495 248.704L78.835 245.078L79.094 241.457L79.4265 237.842L79.8325 234.234L80.312 230.635L80.864 227.048L80.76 227.404L80.778 227.3L80.793 227.199L80.8045 227.1L80.8135 227.003L80.819 226.91L80.8215 226.818L80.821 226.73L80.8175 226.645L80.811 226.561L80.8015 226.48L80.7885 226.402L80.7725 226.327L80.7535 226.255L80.7315 226.184L80.7065 226.117L80.6785 226.052L80.647 225.99L80.6125 225.93L80.5755 225.873L80.535 225.819L80.491 225.767L80.4445 225.718L80.395 225.671L80.342 225.628L80.286 225.586L80.227 225.548L80.165 225.512L80.1 225.478L80.0015 225.431L79.903 225.385L79.8045 225.339L79.706 225.293L79.6075 225.247L79.5085 225.202L79.41 225.157L79.3115 225.111L79.2125 225.066L79.114 225.02L79.0155 224.975L78.917 224.928L78.819 224.88L78.7205 224.833L78.6225 224.783L78.525 224.734L78.427 224.683L78.3295 224.632L78.2325 224.578L78.1325 224.521L78.0325 224.464L77.9335 224.404L77.834 224.342L77.7355 224.279L77.637 224.214L77.5385 224.148L77.44 224.081L77.3425 224.014L77.2445 223.945L77.1465 223.876L77.049 223.805L76.9515 223.736L76.854 223.665L76.757 223.594L76.6595 223.523L76.562 223.452L76.4645 223.381L76.367 223.311L76.2695 223.24L76.172 223.171L76.074 223.102L75.976 223.035L75.878 222.967L75.78 222.9L75.682 222.833L75.584 222.765L75.4855 222.698L75.3875 222.63L75.2895 222.564L75.1915 222.496L75.0935 222.428L74.9955 222.361L74.8975 222.294L74.7995 222.227L74.7015 222.159L74.6035 222.091L74.5055 222.023L74.4075 221.956L74.3095 221.887L74.2115 221.819L74.1135 221.751L74.0155 221.682L73.918 221.613L73.82 221.545L73.7225 221.476L73.6245 221.406L73.527 221.337L73.429 221.268L73.3315 221.199L73.2335 221.131L73.136 221.061L73.038 220.992L72.9405 220.923L72.8425 220.854L72.745 220.785L72.6475 220.715L72.55 220.645L72.4525 220.574L72.355 220.504L72.2575 220.434L72.16 220.362L72.0625 220.29L71.9655 220.219L71.8685 220.146L71.7715 220.074L71.6745 220L71.5775 219.926L71.481 219.852L71.384 219.777L71.2875 219.701L71.191 219.625L71.095 219.549L70.9985 219.472L70.902 219.395L70.806 219.317L70.71 219.238L70.614 219.16L70.518 219.081L70.4225 219.001L70.3265 218.922L70.231 218.842L70.1355 218.761L70.0395 218.68L69.9445 218.598L69.849 218.517L69.7535 218.435L69.6585 218.352L69.563 218.27L69.468 218.186L69.373 218.103L69.278 218.02L69.183 217.936L69.088 217.85L68.993 217.766L68.8985 217.68L68.804 217.594L68.7095 217.508L68.615 217.421L68.5205 217.333L68.4265 217.246L68.332 217.158L68.238 217.07L68.144 216.98L68.05 216.891L67.956 216.801L67.862 216.711L67.7685 216.62L67.6745 216.53L67.581 216.439L67.4875 216.347L67.394 216.255L67.3005 216.163L67.207 216.07L67.114 215.977L67.0205 215.883L66.9275 215.79L66.8345 215.695L66.7415 215.601L66.6485 215.507L66.5555 215.411L66.4625 215.315L66.37 215.219L66.2775 215.122L66.1845 215.025L66.092 214.928L66 214.83L65.9075 214.732L65.8155 214.633L65.723 214.533L65.631 214.434L65.539 214.333L65.4475 214.232L65.3555 214.13L65.264 214.029L65.1725 213.926L65.081 213.823L64.9895 213.719L64.8985 213.615L64.8075 213.51L64.7165 213.402L64.626 213.295L64.5355 213.186L64.4455 213.077L64.3555 212.967L64.2655 212.855L64.1755 212.744L64.0855 212.633L63.996 212.52L63.906 212.408L63.8165 212.295L63.727 212.182L63.637 212.07L63.5475 211.957L63.458 211.844L63.368 211.732L63.2785 211.62L63.1885 211.509L63.0985 211.398L63.008 211.288L62.918 211.179L62.8265 211.07L62.7345 210.963L62.6425 210.858L62.55 210.754L62.4575 210.651L62.365 210.548L62.272 210.446L62.1795 210.344L62.087 210.242L61.9945 210.138L61.902 210.033L61.81 209.928L61.7185 209.82L61.627 209.71L61.5365 209.597L61.446 209.482L61.3565 209.363L61.2675 209.241L61.179 209.115L61.1015 209.01L61.017 208.91L60.9265 208.816L60.8295 208.727L60.7275 208.645L60.62 208.571L60.508 208.503L60.392 208.443L60.272 208.391L60.149 208.346L60.023 208.309L59.8955 208.281L59.766 208.262L59.6355 208.251L59.5045 208.249L59.374 208.255L59.244 208.269L59.115 208.292L58.988 208.323L58.863 208.363L58.7415 208.411L58.623 208.466L58.508 208.529L58.398 208.6L58.2925 208.678L58.1925 208.762L58.098 208.852L58.01 208.949L57.9285 209.051L57.8535 209.159L57.786 209.271L57.7255 209.387L57.673 209.507L57.6285 209.63L57.5925 209.756L57.5645 209.883L55.924 218.733L55.207 222.83L54.5745 226.941L54.025 231.064L53.56 235.197L53.179 239.339L52.8825 243.487L52.67 247.641L52.5425 251.798L52.499 255.957L52.5405 260.116L52.6665 264.273L52.877 268.427L53.172 272.576L53.5515 276.717L54.0145 280.851L54.562 284.974L55.193 289.085L55.908 293.182L56.7055 297.264L57.5865 301.329L58.5495 305.375L59.5945 309.401L60.7215 313.405L61.9295 317.385L63.2185 321.34L64.587 325.267L66.0355 329.165L67.563 333.034L69.169 336.871L70.8525 340.674L72.613 344.443L74.45 348.174L76.362 351.867L78.3495 355.522L80.41 359.134L82.544 362.704L84.7505 366.23L87.028 369.711L89.3755 373.143L91.7925 376.529L94.278 379.863L96.8305 383.147L99.4495 386.378L102.133 389.556L104.882 392.677L107.693 395.742L110.566 398.75L113.499 401.699L116.492 404.587L119.543 407.414L122.651 410.178L125.814 412.879L129.032 415.514L132.303 418.083L135.624 420.586L138.997 423.021L142.418 425.386L145.887 427.681L149.401 429.905L152.96 432.057L156.562 434.137L160.206 436.143L163.889 438.074L167.611 439.93L171.37 441.71L175.165 443.413L178.993 445.039L182.854 446.586L186.745 448.055L190.666 449.444L194.614 450.753L198.588 451.981L202.585 453.129L206.606 454.194L210.647 455.178L214.707 456.079L218.785 456.898L222.878 457.634L226.986 458.286L231.107 458.855L235.237 459.34L239.378 459.74L243.525 460.056L247.677 460.288L251.834 460.435L255.993 460.498L260.151 460.477L264.31 460.37L268.465 460.179L272.615 459.904L276.758 459.544L280.894 459.1L285.019 458.572L289.133 457.961L293.233 457.265L297.319 456.487L301.388 455.625L305.439 454.681L309.47 453.655L313.478 452.547L317.464 451.358L321.425 450.087L325.358 448.737L329.265 447.307L333.14 445.798L336.984 444.21L340.796 442.544L344.572 440.802L348.312 438.983L352.015 437.087L355.678 435.118L359.3 433.074L362.88 430.957L366.417 428.767L369.908 426.507L373.352 424.175L376.748 421.774L380.095 419.304L383.39 416.767L386.634 414.163L389.823 411.494L392.959 408.76L396.037 405.964L398.962 403.197L399.03 403.131L399.099 403.065L399.987 402.199L400.9 401.295L401.794 400.392L402.672 399.489L403.532 398.588L404.375 397.688L405.201 396.788L406.011 395.889L406.804 394.992L407.579 394.095L408.339 393.199L409.082 392.304L409.808 391.409L410.517 390.516L411.211 389.623L411.889 388.731L412.55 387.84L413.195 386.948L413.825 386.058L414.438 385.168L415.034 384.28L415.616 383.391L416.181 382.503L416.731 381.616L417.265 380.728L417.784 379.842L418.286 378.956L418.772 378.07L419.244 377.185L419.7 376.301L420.14 375.416L420.564 374.533L420.973 373.649L421.366 372.767L421.743 371.884L422.105 371.003L422.452 370.121L422.782 369.241L423.098 368.362L423.397 367.483L423.681 366.604L423.949 365.728L424.202 364.851L424.439 363.976L424.66 363.102L424.866 362.229L425.055 361.358L425.229 360.488L425.388 359.62L425.53 358.754L425.657 357.889L425.768 357.027L425.864 356.167L425.944 355.309L426.008 354.454L426.056 353.602L426.089 352.753L426.106 351.907L426.108 351.064L426.094 350.225L426.065 349.39L426.021 348.559L425.961 347.733L425.886 346.91L425.796 346.092L425.692 345.28L425.572 344.473L425.438 343.671L425.289 342.875L425.127 342.085L424.95 341.3L424.759 340.522L424.554 339.75L424.336 338.986L424.104 338.228L423.859 337.477L423.602 336.733L423.331 335.996L423.047 335.268L422.753 334.547L422.445 333.834L422.125 333.129L421.795 332.432L421.453 331.743L421.099 331.063L420.735 330.392L420.361 329.728L419.976 329.073L419.581 328.428L419.175 327.791L418.761 327.163L418.336 326.544L417.904 325.934L417.461 325.332L417.011 324.741L416.551 324.158L416.084 323.583L415.608 323.018L415.125 322.463L414.634 321.917L414.135 321.379L413.629 320.85L413.117 320.332L412.598 319.822L412.072 319.32L411.539 318.828L411.001 318.345L410.456 317.872L409.905 317.408L409.349 316.952L408.788 316.505L408.22 316.068L407.647 315.639L407.07 315.219L406.487 314.809L405.9 314.406L405.308 314.013L404.711 313.629L404.111 313.254L403.505 312.888L402.896 312.53L402.283 312.181L401.665 311.841L401.044 311.51L400.419 311.188L399.791 310.875L399.159 310.569L398.524 310.273L397.886 309.986L397.244 309.707L396.599 309.437L395.952 309.176L395.302 308.923L394.649 308.68L393.993 308.445L393.335 308.219L392.674 308.001L392.011 307.793L391.345 307.593L390.678 307.402L390.009 307.22L389.337 307.047L388.664 306.883L387.988 306.728L387.311 306.581L386.632 306.444L385.952 306.315L385.27 306.197L384.586 306.086L383.902 305.986L383.216 305.895L382.529 305.812L381.841 305.74L381.151 305.677L380.461 305.623L379.771 305.578L379.078 305.544L378.387 305.52L377.694 305.504L377.094 305.5L377.047 305.5H377H223.224L325.226 213.137L325.947 212.431L326.611 211.671L327.214 210.863L327.753 210.01L328.223 209.118L328.624 208.193L328.951 207.238L329.203 206.262L329.379 205.269L329.478 204.265L329.498 203.257L329.44 202.25L329.304 201.251L329.091 200.264L328.802 199.298L328.44 198.357L328.005 197.447L327.501 196.574L326.931 195.741L326.298 194.956L325.606 194.222L324.86 193.544L324.063 192.926L323.22 192.372L322.337 191.884L321.418 191.467L320.471 191.122L319.5 190.85L318.509 190.656L317.508 190.539L316.5 190.5H126.524L126.025 190.498L125.554 190.493L125.087 190.484L124.622 190.472L124.16 190.457L123.702 190.438L123.248 190.416L122.797 190.391L122.35 190.362L121.906 190.33L121.465 190.295L121.027 190.257L120.594 190.216L120.164 190.171L119.738 190.124L119.315 190.074L118.896 190.021L118.48 189.965L118.069 189.906L117.661 189.844L117.257 189.779L116.856 189.712L116.46 189.642L116.067 189.57L115.679 189.494L115.294 189.416L114.913 189.335L114.536 189.253L114.163 189.167L113.795 189.079L113.43 188.99L113.07 188.896L112.713 188.802L112.36 188.705L112.012 188.605L111.668 188.505L111.328 188.401L110.993 188.296L110.661 188.188L110.334 188.079L110.011 187.967L109.693 187.854L109.379 187.739L109.069 187.622L108.763 187.503L108.463 187.383L108.166 187.262L107.874 187.139L107.587 187.014L107.304 186.888L107.025 186.761L106.752 186.632L106.482 186.502L106.217 186.371L105.957 186.239L105.701 186.105L105.451 185.971L105.204 185.836L104.962 185.7L104.725 185.564L104.493 185.426L104.265 185.288L104.041 185.148L103.823 185.009L103.609 184.87L103.4 184.729L103.196 184.589L102.996 184.447L102.801 184.307L102.61 184.165L102.424 184.023L102.243 183.883L102.066 183.741L101.895 183.6L101.727 183.459L101.564 183.318L101.406 183.178L101.252 183.038L101.102 182.898L100.957 182.759L100.816 182.62L100.68 182.482L100.548 182.345L100.42 182.208L100.297 182.073L100.177 181.938L100.062 181.805L99.951 181.671L99.844 181.539L99.7405 181.408L99.6415 181.279L99.546 181.15L99.454 181.021L99.366 180.895L99.282 180.77L99.201 180.645L99.1235 180.523L99.0495 180.4L98.9785 180.28L98.911 180.161L98.8465 180.042L98.7855 179.925L98.727 179.809L98.6715 179.694L98.619 179.58L98.569 179.467L98.5215 179.355L98.4765 179.245L98.4345 179.135L98.3945 179.025L98.357 178.917L98.322 178.809L98.2885 178.702L98.258 178.595L98.229 178.488L98.2025 178.383L98.1775 178.277L98.1545 178.171L98.134 178.064L98.115 177.958L98.0975 177.852L98.0825 177.745L98.069 177.637L98.0575 177.529L98.0475 177.42L98.04 177.31L98.034 177.199L98.0295 177.087L98.0275 176.973V176.857L98.0295 176.741L98.0335 176.622L98.0395 176.501L98.048 176.379L98.0585 176.255L98.0715 176.128L98.087 175.999L98.1055 175.867L98.126 175.732L98.1495 175.596L98.176 175.456L98.2055 175.313L98.2385 175.167L98.274 175.019L98.3135 174.867L98.356 174.713L98.4025 174.555L98.4525 174.394L98.5065 174.23L98.5645 174.062L98.627 173.891L98.693 173.717L98.764 173.538L98.8395 173.357L98.9195 173.173L99.0045 172.985L99.094 172.794L99.189 172.598L99.289 172.4L99.3845 172.217L101.13 169.014L102.929 165.865L104.793 162.752L106.719 159.678L108.708 156.645L110.757 153.652L112.868 150.701L115.037 147.794L117.265 144.931L119.551 142.115L121.894 139.344L124.292 136.624L126.745 133.951L129.252 131.329L131.812 128.759L134.423 126.242L137.085 123.777L139.797 121.368L142.557 119.014L145.365 116.716L148.218 114.477L151.116 112.296L154.059 110.174L157.043 108.112L160.068 106.111L163.135 104.172L166.24 102.296L169.382 100.483L172.559 98.735L175.773 97.0515L179.02 95.4335L182.299 93.882L185.608 92.3975L188.947 90.9805L192.315 89.632L195.709 88.3515L199.128 87.1405L202.572 85.9995L206.038 84.9285L209.525 83.9285L213.031 82.999L216.555 82.1415L220.097 81.3555L223.654 80.6415L227.224 80L230.806 79.431L234.4 78.9355L238.003 78.5125L241.613 78.163L245.23 77.8875L248.852 77.685L252.477 77.556L256.104 77.501L259.732 77.5195L263.358 77.612L266.982 77.778L270.602 78.0175L274.215 78.331L277.822 78.7175L281.421 79.177L285.009 79.7095L288.585 80.3155L292.149 80.9935L295.698 81.7435L299.231 82.566L302.746 83.46L306.243 84.4255L309.72 85.4615L313.174 86.568L316.606 87.7445L320.012 88.9905L323.393 90.3055L326.746 91.6885L330.071 93.14L333.365 94.6585L336.628 96.2435L339.858 97.8945L343.054 99.611L346.214 101.392L349.337 103.237L352.422 105.145L355.468 107.115L358.474 109.146L361.437 111.239L364.357 113.391L367.233 115.602L370.063 117.871L372.846 120.197L375.582 122.579L378.269 125.017L380.905 127.508L383.491 130.053L386.024 132.649L388.504 135.296L390.93 137.993L393.3 140.74L395.614 143.533L397.871 146.373L400.069 149.258L402.209 152.188L404.289 155.16L406.307 158.173L408.264 161.228L410.159 164.321L411.99 167.452L413.758 170.62L415.46 173.824L417.098 177.061L418.668 180.33L420.172 183.631L421.61 186.962L422.978 190.321L424.279 193.708L425.51 197.12L426.672 200.556L427.763 204.016L428.784 207.496L429.735 210.997L430.614 214.516L431.421 218.053L432.155 221.605L432.818 225.171L433.409 228.751L433.926 232.341L434.37 235.941L434.741 239.55L435.039 243.165L435.263 246.786L435.413 250.41L435.49 254.036L435.493 257.664L435.422 261.291L435.278 264.915L435.06 268.536L434.767 272.152L434.403 275.762L433.965 279.362L433.453 282.953L432.869 286.534L432.212 290.101L431.483 293.655L430.681 297.193L429.809 300.714L428.865 304.216L427.849 307.698L428 307.355L427.969 307.457L427.94 307.555L427.916 307.651L427.895 307.746L427.877 307.838L427.862 307.928L427.851 308.016L427.844 308.102L427.839 308.185L427.838 308.266L427.841 308.345L427.847 308.422L427.856 308.496L427.869 308.569L427.884 308.638L427.904 308.707L427.927 308.772L427.953 308.836L427.983 308.897L428.016 308.957L428.052 309.013L428.093 309.069L428.136 309.121L428.183 309.172L428.233 309.22L428.286 309.266L428.343 309.31L428.403 309.352L428.494 309.41L428.586 309.47L428.677 309.528L428.769 309.586L428.861 309.644L428.953 309.702L429.045 309.759L429.137 309.818L429.228 309.875L429.321 309.934L429.412 309.992L429.504 310.052L429.595 310.111L429.686 310.172L429.776 310.233L429.867 310.294L429.957 310.358L430.047 310.422L430.137 310.487L430.228 310.556L430.32 310.627L430.41 310.699L430.5 310.773L430.591 310.849L430.68 310.926L430.769 311.004L430.858 311.083L430.946 311.163L431.034 311.244L431.121 311.326L431.209 311.408L431.297 311.49L431.384 311.573L431.472 311.656L431.559 311.739L431.646 311.822L431.733 311.905L431.821 311.987L431.909 312.069L431.996 312.151L432.084 312.232L432.172 312.312L432.261 312.392L432.349 312.471L432.438 312.551L432.526 312.63L432.615 312.71L432.703 312.789L432.792 312.869L432.88 312.948L432.969 313.028L433.057 313.108L433.145 313.187L433.233 313.267L433.322 313.347L433.41 313.427L433.499 313.507L433.587 313.587L433.675 313.667L433.763 313.747L433.852 313.828L433.94 313.909L434.028 313.99L434.116 314.07L434.203 314.151L434.291 314.233L434.379 314.314L434.467 314.396L434.555 314.477L434.643 314.557L434.731 314.639L434.819 314.72L434.907 314.802L434.995 314.883L435.082 314.965L435.17 315.047L435.258 315.129L435.345 315.211L435.433 315.293L435.52 315.376L435.607 315.46L435.694 315.543L435.781 315.628L435.868 315.712L435.955 315.797L436.041 315.882L436.128 315.968L436.214 316.055L436.3 316.142L436.386 316.229L436.472 316.317L436.557 316.405L436.642 316.494L436.728 316.583L436.813 316.673L436.898 316.763L436.983 316.853L437.068 316.944L437.152 317.035L437.237 317.127L437.321 317.219L437.405 317.311L437.49 317.404L437.573 317.497L437.658 317.591L437.741 317.685L437.825 317.779L437.909 317.873L437.992 317.968L438.076 318.063L438.159 318.159L438.242 318.254L438.325 318.35L438.408 318.448L438.491 318.544L438.573 318.642L438.655 318.74L438.738 318.839L438.82 318.938L438.902 319.036L438.984 319.137L439.065 319.237L439.147 319.337L439.229 319.438L439.31 319.539L439.392 319.641L439.473 319.742L439.554 319.845L439.634 319.948L439.716 320.051L439.796 320.154L439.877 320.258L439.957 320.362L440.038 320.466L440.118 320.571L440.198 320.676L440.278 320.781L440.358 320.888L440.438 320.993L440.517 321.1L440.597 321.207L440.676 321.315L440.756 321.422L440.835 321.531L440.914 321.639L440.993 321.749L441.071 321.858L441.15 321.969L441.228 322.079L441.306 322.19L441.384 322.302L441.462 322.414L441.54 322.526L441.618 322.639L441.694 322.753L441.772 322.867L441.849 322.982L441.926 323.097L442.002 323.214L442.078 323.332L442.154 323.45L442.229 323.569L442.305 323.69L442.379 323.811L442.455 323.932L442.529 324.055L442.603 324.177L442.677 324.301L442.752 324.423L442.826 324.547L442.9 324.671L442.974 324.794L443.049 324.918L443.123 325.04L443.197 325.164L443.272 325.286L443.347 325.408L443.421 325.53L443.496 325.651L443.572 325.771L443.648 325.891L443.725 326.009L443.802 326.125L443.881 326.24L443.959 326.354L444.038 326.468L444.116 326.582L444.194 326.695L444.273 326.809L444.351 326.923L444.429 327.039L444.507 327.156L444.583 327.275L444.659 327.396L444.735 327.52L444.809 327.646L444.883 327.775L444.955 327.908L445.026 328.043L445.089 328.159L445.159 328.268L445.237 328.374L445.322 328.474L445.413 328.569L445.509 328.656L445.612 328.738L445.719 328.813L445.831 328.88L445.947 328.941L446.067 328.993L446.19 329.038L446.315 329.074L446.444 329.102L446.573 329.122L446.703 329.133L446.834 329.135L446.965 329.129L447.095 329.115L447.224 329.092L447.351 329.06L447.476 329.021L447.598 328.974L447.716 328.918L447.831 328.854L447.941 328.784L448.046 328.707L448.146 328.622L448.241 328.531L448.329 328.435L448.41 328.332L448.486 328.225L448.553 328.113L448.613 327.996L448.666 327.877L448.71 327.754L451.491 319.194L451.532 319.069Z" fill="url(#paint0_linear_1_2)"/>
</g>
<defs>
<linearGradient id="paint0_linear_1_2" x1="256.996" y1="51.5" x2="256.996" y2="460.498" gradientUnits="userSpaceOnUse">
<stop stop-color="#1A1A1A"/>
<stop offset="1" stop-color="#666666"/>
</linearGradient>
<clipPath id="clip0_1_2">
<rect width="512" height="512" rx="100" fill="white"/>
</clipPath>
</defs>
</svg>
