<svg xmlns="http://www.w3.org/2000/svg" viewBox="0 0 64 64" role="img" aria-labelledby="title">
  <title id="title">SQL</title>
  <defs>
    <linearGradient id="database" x1="10" y1="8" x2="54" y2="56" gradientUnits="userSpaceOnUse">
      <stop stop-color="#42a5f5"/>
      <stop offset="1" stop-color="#1565c0"/>
    </linearGradient>
  </defs>
  <path fill="url(#database)" d="M32 5C18.7 5 8 9.3 8 14.5v35C8 54.7 18.7 59 32 59s24-4.3 24-9.5v-35C56 9.3 45.3 5 32 5Z"/>
  <path fill="#fff" fill-opacity=".2" d="M32 8c12.2 0 21 3.7 21 6.5S44.2 21 32 21s-21-3.7-21-6.5S19.8 8 32 8Zm0 16c-9.1 0-17-2-21-5v8.5c0 2.8 8.8 6.5 21 6.5s21-3.7 21-6.5V19c-4 3-11.9 5-21 5Zm0 13c-9.1 0-17-2-21-5v8.5c0 2.8 8.8 6.5 21 6.5s21-3.7 21-6.5V32c-4 3-11.9 5-21 5Z"/>
  <text x="32" y="52" fill="#fff" font-family="Arial, sans-serif" font-size="12" font-weight="700" letter-spacing=".8" text-anchor="middle">SQL</text>
</svg>
